<svg xmlns='http://www.w3.org/2000/svg' width='400' height='400'>
      <defs><style>.cls-multipy{mix-blend-mode: multiply;}.cls-softlight{mix-blend-mode: soft-light;}.cls-overlay{mix-blend-mode: overlay;}.cls-colorburn{mix-blend-mode: color-burn;}.cls-screen{mix-blend-mode: screen;}.cls-lighten{ mix-blend-mode: darken;}</style>
      </defs><path fill="#ffc09c" stroke="#000" stroke-miterlimit="10" stroke-width="5" d="M303.13,380v19.39H96.87V380c0-38.61,19.76-71.1,45.91-78.94a42.23,42.23,0,0,1,8.94-1.67h0c1.08-.09,2.16-.14,3.26-.14h90c1.1,0,2.18,0,3.26.14h0a42.32,42.32,0,0,1,12.16,2.78C285,311.65,303.13,343,303.13,380Z" class="canChange" style="fill:null"></path><path fill="#ffc09c" stroke="#000" stroke-miterlimit="10" stroke-width="5" d="M311.59,187.33s53.56-48.67,44.87,6.95S312.69,238,312.69,238" class="canChange" style="fill:null"></path><path fill="none" stroke="#000" stroke-miterlimit="10" stroke-width="2" d="M345.49,178.08c-7.33,1.35-19.24,13.09-21.6,22a7.31,7.31,0,0,1,10.47-.63c3.17,2.78,4.94,8.41,4.24,13.5s-3.83,9.3-7.49,10.1"></path><path fill="#fff" d="M315.07,196.36c5.16-10.16,12.78-17.79,21.34-21.37,3-1.27,6.42-2,9.34-.19,4.05,2.51,6,9.35,5.7,15.49s-2.37,11.76-4.4,17.19c4.25-5.19,7.1-12.56,7.89-20.42.4-3.93.23-8.26-1.49-11.48A9.14,9.14,0,0,0,348,171a12.92,12.92,0,0,0-6.39,0c-10.12,2.14-19.41,10.61-24.85,22.65" class="cls-overlay"></path><path fill="#ffc09c" stroke="#000" stroke-miterlimit="10" stroke-width="5" d="M88.41,187.33s-53.56-48.67-44.87,6.95S87.31,238,87.31,238" class="canChange" style="fill:null"></path><path fill="none" stroke="#000" stroke-miterlimit="10" stroke-width="2" d="M54.51,178.08c7.33,1.35,19.24,13.09,21.6,22a7.31,7.31,0,0,0-10.47-.63c-3.17,2.78-4.94,8.41-4.24,13.5s3.83,9.3,7.49,10.1"></path><path fill="#fff" d="M84.93,196.36C79.77,186.2,72.15,178.57,63.59,175c-3-1.27-6.42-2-9.34-.19-4,2.51-6,9.35-5.7,15.49s2.37,11.76,4.4,17.19c-4.25-5.19-7.1-12.56-7.89-20.42-.4-3.93-.23-8.26,1.49-11.48A9.14,9.14,0,0,1,52,171a12.92,12.92,0,0,1,6.39,0c10.12,2.14,19.41,10.61,24.85,22.65" class="cls-overlay"></path><circle fill="#ffc09c" stroke="#000" stroke-miterlimit="10" stroke-width="5" cx="199.03" cy="179.39" r="129.04" class="canChange" style="fill:null"></circle><path fill="#fff" d="M79.76,187a128.71,128.71,0,0,0,45.12,98A129,129,0,1,1,283,81.38,129.06,129.06,0,0,0,79.76,187Z" class="cls-overlay"></path><path opacity="0.29" d="M328.31,179.39a129.06,129.06,0,0,1-252,39.18A129.08,129.08,0,0,0,312.47,117.39,128.45,128.45,0,0,1,328.31,179.39Z"></path><path fill="#2a7382" stroke="#000" stroke-miterlimit="10" stroke-width="5" d="M70.72,73.68c-6.41-1.1-12.38-.85-22.71.22,0,0,14.3-8.26,31.27-7.31,3.3.19,27.26,3.69,29.67,4.83,3.2,1.51-24,10.49-23.55,12.67C82.27,81,77.37,74.81,70.72,73.68Z" class="canChange" style="fill:null"></path><path fill="#2a7382" stroke="#000" stroke-miterlimit="10" stroke-width="5" d="M76.29,56.09S75.71,67.35,91,68.82l9.23-6.26S80.29,61.7,76.29,56.09Z" class="canChange" style="fill:null"></path><path fill="#2a7382" stroke="#000" stroke-miterlimit="10" stroke-width="5" d="M352.12,118.85a119,119,0,0,1-11,27.26c-3.71,6.84-6.43,14.55-10.52,21.11A45.82,45.82,0,0,1,321,151.64c-4.54-12.08-4.79-27.95-17.82-34.65,0,0-3.49-1.8-9.56-4.21-16-6.37-50.2-17.1-86.43-10.79-16.77,2.92-49,13.23-52.85,12.45q-1.26-.25-2.49-.54c-19.91-4.51-34.86-13.19-40.63-13-31.93.91-29.07,45.45-42.44,64.93a2.9,2.9,0,0,1-1.42,1.26l-.33-.34c-3.86-4.09-6.31-11.88-8.94-16.83-9-16.86-12.43-22-12.2-27.9.65-15.74,7-33.12,23.95-44.3,1.45-1,2.86-2,4.34-3,1-.68,2.07-1.36,3.18-2a36,36,0,0,1,11.12-4.27l.58-.12c.52-.1,1.06-.2,1.61-.28s1.19-.18,1.82-.25c6.52-.78,15.06-.51,26.83,1.55l16-5.37,7.37-2.48q5.64-1.89,11.52-3.45a230,230,0,0,1,49.65-7.25c26-1,52.19,1.9,74.72,8.39a153.07,153.07,0,0,1,28.2,11.05,93,93,0,0,1,19.5,13.28l4.45,4,22.18,20.1C353.67,109.45,353.45,113.43,352.12,118.85Z" class="canChange" style="fill:null"></path><path opacity="0.29" d="M305.5,106,301,107.65l-7.36,2.65c-16-6.37-50.2-17.1-86.43-10.79-16.77,2.92-49,13.23-52.85,12.45q-1.26-.25-2.49-.54l-.66-3.56-1-5.37L149,95.84l14.22-9.26,41.56-27.07h0l53.66,5.85Z"></path><path fill="#2a7382" stroke="#000" stroke-miterlimit="10" stroke-width="5" d="M338.14,120.24c-40.76,2.1-44.26-25.15-80.92-41.11-13.53-5.89-31-6.83-40.71-6.42-16.17.7-51.77,17.49-66.35,39.07l-3.5-1.15q-4.2-1.39-8.19-3C116,98.91,98.73,86.46,90.73,71.78c-8.15-15-7.08-31.59,37.37-32.16,4.63-.06,9.73.05,15.34.36,0,0,19.95-33.28,96-.38,0,0,37.13-5.81,67.94,31.4,12.5,15.08,46.36,31.83,65.45,11.34C372.81,82.34,403.47,116.87,338.14,120.24Z" class="canChange" style="fill:null"></path><path opacity="0.29" d="M146.77,110.66S103,22,186.37,25.08c0,0,28.73,1.54,53,14.52,0,0-54.41-10.77-72.84,4.76C143.4,63.89,141.71,89,146.77,110.66Z"></path><path opacity="0.29" d="M285.61,61.15S268.78,49.5,233.4,48.66c-34.11-.81-81,7.81-86.63,62,0,0,24.51-49.23,89.69-56.13C246.38,53.48,260.23,53.86,285.61,61.15Z"></path><path fill="#fff" d="M138.47,107.67C116,98.91,98.73,86.46,90.73,71.78c-8.15-15-7.08-31.59,37.37-32.16-15.53,4-37.55,11.7-33.6,22.88C98.75,74.54,124.06,96.1,138.47,107.67Z" class="cls-overlay"></path><path fill="#fff" d="M52,123c3,21.86,15.84,28.91,15,43.72-3.86-4.09-6.31-11.88-8.94-16.83-9-16.86-12.43-22-12.2-27.9.65-15.74,7-33.12,23.95-44.3,1.45-1,2.86-2,4.34-3,1-.68,2.07-1.36,3.18-2L89,68.35S49,101,52,123Z" class="cls-overlay"></path><path d="M146.18,109.55a32.46,32.46,0,0,1-2.79,6.26,56.14,56.14,0,0,1-9.64,13.57C121,142.31,104,142.23,88.3,134.72c-5.78-2.75-10.86,5.87-5,8.64,18.91,9,39.75,9.59,55.81-5.21a63.67,63.67,0,0,0,16.75-25.95c2.05-6.11-7.6-8.74-9.64-2.65Z" class="canChange" style="fill:null"></path><path d="M243.29,113.3a63.32,63.32,0,0,0,17.53,25.43C277.36,153,298.08,152,316.74,142.3c5.72-3,.67-11.6-5-8.64-15.43,8-32.48,8.87-45.63-3.65a56.15,56.15,0,0,1-10-13.1c-.93-1.65-1.76-3.34-2.58-5-.94-2,.06.32-.52-1.23-2.22-6-11.89-3.39-9.64,2.66Z" class="canChange" style="fill:null"></path><ellipse opacity="0.29" cx="277.91" cy="192.44" rx="42.09" ry="43.67"></ellipse><ellipse fill="#fff" cx="277.11" cy="190.24" rx="40.59" ry="42.17"></ellipse><path d="M277.11,149.57c21.55,0,39.09,18.25,39.09,40.67s-17.54,40.67-39.09,40.67S238,212.66,238,190.24s17.53-40.67,39.09-40.67m0-3c-23.25,0-42.09,19.55-42.09,43.67s18.84,43.67,42.09,43.67,42.09-19.55,42.09-43.67-18.85-43.67-42.09-43.67Z"></path><path opacity="0.29" d="M319.19,190.24c0,24.12-18.84,43.66-42.09,43.66A41.47,41.47,0,0,1,243.82,217a52.93,52.93,0,0,0,16.33,2.57c26.18,0,47.4-18.92,47.4-42.25a39,39,0,0,0-8.75-24.47A44,44,0,0,1,319.19,190.24Z"></path><ellipse cx="278.35" cy="190.42" rx="22.69" ry="23.66" transform="translate(77 460.96) rotate(-87.72)" class="canChange" style="fill:null"></ellipse><ellipse fill="#f2f2f2" cx="266.16" cy="177.12" rx="6.99" ry="7.07"></ellipse><ellipse fill="#f2f2f2" cx="262.16" cy="193.3" rx="8.99" ry="9.1"></ellipse><ellipse opacity="0.29" cx="122.09" cy="194.44" rx="42.09" ry="43.67"></ellipse><ellipse fill="#fff" cx="122.89" cy="192.24" rx="40.59" ry="42.17"></ellipse><path d="M122.89,151.57c21.56,0,39.09,18.25,39.09,40.67s-17.53,40.67-39.09,40.67S83.8,214.66,83.8,192.24s17.54-40.67,39.09-40.67m0-3c-23.24,0-42.09,19.55-42.09,43.67s18.85,43.67,42.09,43.67S165,216.36,165,192.24s-18.84-43.67-42.09-43.67Z"></path><path opacity="0.29" d="M166.18,192.24c0,24.12-18.84,43.66-42.09,43.66A41.47,41.47,0,0,1,90.81,219a52.93,52.93,0,0,0,16.33,2.57c26.18,0,47.4-18.92,47.4-42.25a39,39,0,0,0-8.75-24.47A44,44,0,0,1,166.18,192.24Z"></path><ellipse cx="123.35" cy="190.42" rx="22.69" ry="23.66" transform="translate(-71.83 306.08) rotate(-87.72)" class="canChange" style="fill:null"></ellipse><ellipse fill="#f2f2f2" cx="111.16" cy="177.12" rx="6.99" ry="7.07"></ellipse><ellipse fill="#f2f2f2" cx="107.16" cy="193.3" rx="8.99" ry="9.1"></ellipse><path fill="#2e0f0e" stroke="#000" stroke-miterlimit="10" stroke-width="3" d="M213,271.67a8.64,8.64,0,0,1-1.37,2.62c-2.87,3.74-8.05,3.92-12.55,3.79a26.52,26.52,0,0,1-7.43-.93,9.66,9.66,0,0,1-5.81-4.77,9.23,9.23,0,0,1-.82-3c-1-9.28,6.5-23.42,17.91-22.67a9.1,9.1,0,0,1,6.71,3.88C213.74,256.15,215.13,265.18,213,271.67Z"></path><path fill="#c74d5a" d="M187.66,273.87c5.44,2.68,12.41,4.37,18.75,1.33a18.12,18.12,0,0,0,5-3.6c-5.39-5.51-12.84-2-12.84-2l-1.05-.29-.17,0A8.07,8.07,0,0,0,187.66,273.87Z"></path><path d="M193.71,272.85a2.4,2.4,0,0,1-.26-2,3.08,3.08,0,0,1,1.12-1.58,3,3,0,0,1,1.86-.6,2.27,2.27,0,0,1,1.85.93c-.54.6-.84,1-1.13,1.32a5.19,5.19,0,0,1-.8.77,6.15,6.15,0,0,1-1,.55C194.93,272.39,194.45,272.57,193.71,272.85Z"></path><path opacity="0.18" d="M195.06,271.11c4.84-1.85,9,1.52,11.35,4.09a18.12,18.12,0,0,0,5-3.6c-5.39-5.51-12.84-2-12.84-2l-1.05-.29-.17,0Z"></path><path fill="#fff" opacity="0.49" d="M190.39,271.6a1.88,1.88,0,0,0-.22,1.53,1.14,1.14,0,0,0,1.15.82,1.29,1.29,0,0,0,.9-.7,4.55,4.55,0,0,0,.4-1.16,2.14,2.14,0,0,0,.08-1C192.33,269.62,190.8,270.93,190.39,271.6Z"></path><path opacity="0.18" d="M210.09,253.33a10.51,10.51,0,0,1-1.3,1.2,15.17,15.17,0,0,1-6.53,2.74,25.73,25.73,0,0,1-14.2-1.3,9.32,9.32,0,0,1,2.72-3.76c2-1.57,4.62-1.85,7.07-2.34a12.2,12.2,0,0,0,4-1.36c.69-.42,1.79-1.94,2.55-2,2.08-.18,4.39,3.8,5.14,5.44Q209.83,252.64,210.09,253.33Z"></path><path fill="#961c1c" stroke="#000" stroke-miterlimit="10" stroke-width="5" d="M305.79,378.24V400H94.7V378.24c0-43.32,20.22-79.77,47-88.57a39.71,39.71,0,0,1,9.14-1.88h0c1.11-.1,2.21-.16,3.34-.16h92.13c1.12,0,2.22.06,3.33.16h0a40.61,40.61,0,0,1,12.45,3.12C287.21,301.5,305.79,336.72,305.79,378.24Z" class="canChange" style="fill:rgb(196, 43, 43)"></path><path opacity="0.29" d="M261.23,290.28c-13.24,9.16-34.89,15.13-59.36,15.13-25.54,0-48-6.51-61.06-16.38a40.33,40.33,0,0,1,9.15-1.88h0c1.11-.1,2.21-.15,3.33-.15h92.13c1.13,0,2.23.05,3.34.15h0A40.49,40.49,0,0,1,261.23,290.28Z"></path><path fill="#961c1c" stroke="#000" stroke-miterlimit="10" stroke-width="5" d="M272.61,354.56v44.88l30.84-.07S314,267,270.88,296.21l-.51,9" class="canChange" style="fill:rgb(196, 43, 43)"></path><path fill="#961c1c" stroke="#000" stroke-miterlimit="10" stroke-width="5" d="M126.69,354.56v44.88l-30.83-.07S85.29,267,128.43,296.21l-.56,12.34" class="canChange" style="fill:rgb(196, 43, 43)"></path><path fill="#fff" d="M127.87,296.21s-21.88,1.68-23,27.49-2.24,75.18-2.24,75.18l-8.42.56,2.2-66.89,9.21-33.29S114.41,289.48,127.87,296.21Z" class="cls-overlay"></path><g opacity="0.29"><path d="M269.81,295.65s25.81,14.59,25.81,57.22-2.27,46.5-2.27,46.5l12.37.63s1.06-70.88-6.21-86.49S285.52,282.19,269.81,295.65Z"></path></g></svg>